<?xml version="1.0" encoding="UTF-8" standalone="no"?>
<!DOCTYPE svg PUBLIC "-//W3C//DTD SVG 1.1//EN"
 "http://www.w3.org/Graphics/SVG/1.1/DTD/svg11.dtd">
<!-- Generated by graphviz version 2.40.1 (20161225.0304)
 -->
<!-- Title: dependencies Pages: 1 -->
<svg width="674pt" height="290pt"
 viewBox="0.00 0.00 674.00 290.00" xmlns="http://www.w3.org/2000/svg" xmlns:xlink="http://www.w3.org/1999/xlink">
<g id="graph0" class="graph" transform="scale(1 1) rotate(0) translate(4 286)">
<title>dependencies</title>
<polygon fill="#ffffff" stroke="transparent" points="-4,4 -4,-286 670,-286 670,4 -4,4"/>
<text text-anchor="start" x="312.0091" y="-42.4" font-family="sans-serif" font-weight="bold" font-size="14.00" fill="#000000">Legend</text>
<polygon fill="#ffffb3" stroke="transparent" points="99,-10 99,-30 119,-30 119,-10 99,-10"/>
<text text-anchor="start" x="122.629" y="-15.4" font-family="sans-serif" font-size="14.00" fill="#000000"> &#160;Declarations</text>
<polygon fill="#8dd3c7" stroke="transparent" points="212,-10 212,-30 232,-30 232,-10 212,-10"/>
<text text-anchor="start" x="235.7251" y="-15.4" font-family="sans-serif" font-size="14.00" fill="#000000"> &#160;Module</text>
<polygon fill="#80b1d3" stroke="transparent" points="298,-10 298,-30 318,-30 318,-10 298,-10"/>
<text text-anchor="start" x="321.7812" y="-15.4" font-family="sans-serif" font-size="14.00" fill="#000000"> &#160;Bootstrap</text>
<polygon fill="#fdb462" stroke="transparent" points="395,-10 395,-30 415,-30 415,-10 395,-10"/>
<text text-anchor="start" x="418.6732" y="-15.4" font-family="sans-serif" font-size="14.00" fill="#000000"> &#160;Providers</text>
<polygon fill="#fb8072" stroke="transparent" points="491,-10 491,-30 511,-30 511,-10 491,-10"/>
<text text-anchor="start" x="514.7258" y="-15.4" font-family="sans-serif" font-size="14.00" fill="#000000"> &#160;Exports</text>
<g id="clust1" class="cluster">
<title>cluster_AppModule</title>
<polygon fill="none" stroke="#000000" stroke-dasharray="1,5" points="8,-70 8,-274 296,-274 296,-70 8,-70"/>
</g>
<g id="clust2" class="cluster">
<title>cluster_AppModule_declarations</title>
<polygon fill="none" stroke="#000000" points="16,-78 16,-130 138,-130 138,-78 16,-78"/>
</g>
<g id="clust4" class="cluster">
<title>cluster_AppModule_imports</title>
<polygon fill="none" stroke="#000000" points="146,-78 146,-130 288,-130 288,-78 146,-78"/>
</g>
<g id="clust6" class="cluster">
<title>cluster_AppModule_bootstrap</title>
<polygon fill="none" stroke="#000000" points="85,-214 85,-266 209,-266 209,-214 85,-214"/>
</g>
<g id="clust8" class="cluster">
<title>cluster_NgxTxtImgModule</title>
<polygon fill="none" stroke="#000000" stroke-dasharray="1,5" points="304,-138 304,-206 658,-206 658,-138 304,-138"/>
</g>
<g id="clust9" class="cluster">
<title>cluster_NgxTxtImgModule_declarations</title>
<polygon fill="none" stroke="#000000" points="486,-146 486,-198 650,-198 650,-146 486,-146"/>
</g>
<g id="clust12" class="cluster">
<title>cluster_NgxTxtImgModule_exports</title>
<polygon fill="none" stroke="#000000" points="312,-146 312,-198 478,-198 478,-146 312,-146"/>
</g>
<!-- AppComponent -->
<g id="node1" class="node">
<title>AppComponent</title>
<polygon fill="#ffffb3" stroke="#000000" points="129.9399,-122 24.0601,-122 24.0601,-86 129.9399,-86 129.9399,-122"/>
<text text-anchor="middle" x="77" y="-99.8" font-family="Times,serif" font-size="14.00" fill="#000000">AppComponent</text>
</g>
<!-- AppModule -->
<g id="node2" class="node">
<title>AppModule</title>
<polygon fill="#8dd3c7" stroke="#000000" points="188.6571,-190 185.6571,-194 164.6571,-194 161.6571,-190 105.3429,-190 105.3429,-154 188.6571,-154 188.6571,-190"/>
<text text-anchor="middle" x="147" y="-167.8" font-family="Times,serif" font-size="14.00" fill="#000000">AppModule</text>
</g>
<!-- AppComponent&#45;&gt;AppModule -->
<g id="edge1" class="edge">
<title>AppComponent&#45;&gt;AppModule</title>
<path fill="none" stroke="#000000" d="M117.4457,-122.2228C117.4457,-122.2228 117.4457,-143.7269 117.4457,-143.7269"/>
<polygon fill="#000000" stroke="#000000" points="113.9457,-143.7269 117.4457,-153.7269 120.9457,-143.727 113.9457,-143.7269"/>
</g>
<!-- AppComponent  -->
<g id="node4" class="node">
<title>AppComponent </title>
<polygon fill="#80b1d3" stroke="#000000" points="201.439,-258 92.561,-258 92.561,-222 201.439,-222 201.439,-258"/>
<text text-anchor="middle" x="147" y="-235.8" font-family="Times,serif" font-size="14.00" fill="#000000">AppComponent </text>
</g>
<!-- AppModule&#45;&gt;AppComponent  -->
<g id="edge3" class="edge">
<title>AppModule&#45;&gt;AppComponent </title>
<path fill="none" stroke="#000000" stroke-dasharray="1,5" d="M147,-190.2228C147,-190.2228 147,-211.7269 147,-211.7269"/>
<polygon fill="#000000" stroke="#000000" points="143.5001,-211.7269 147,-221.7269 150.5001,-211.727 143.5001,-211.7269"/>
</g>
<!-- NgxTxtImgModule -->
<g id="node3" class="node">
<title>NgxTxtImgModule</title>
<polygon fill="#8dd3c7" stroke="#000000" points="279.6513,-122 276.6513,-126 255.6513,-126 252.6513,-122 154.3487,-122 154.3487,-86 279.6513,-86 279.6513,-122"/>
<text text-anchor="middle" x="217" y="-99.8" font-family="Times,serif" font-size="14.00" fill="#000000">NgxTxtImgModule</text>
</g>
<!-- NgxTxtImgModule&#45;&gt;AppModule -->
<g id="edge2" class="edge">
<title>NgxTxtImgModule&#45;&gt;AppModule</title>
<path fill="none" stroke="#000000" d="M171.5014,-122.2228C171.5014,-122.2228 171.5014,-143.7269 171.5014,-143.7269"/>
<polygon fill="#000000" stroke="#000000" points="168.0015,-143.7269 171.5014,-153.7269 175.0015,-143.727 168.0015,-143.7269"/>
</g>
<!-- NgxTxtImgComponent  -->
<g id="node6" class="node">
<title>NgxTxtImgComponent </title>
<polygon fill="#fb8072" stroke="#000000" points="470.4334,-190 319.5666,-190 319.5666,-154 470.4334,-154 470.4334,-190"/>
<text text-anchor="middle" x="395" y="-167.8" font-family="Times,serif" font-size="14.00" fill="#000000">NgxTxtImgComponent </text>
</g>
<!-- NgxTxtImgModule&#45;&gt;NgxTxtImgComponent  -->
<g id="edge5" class="edge">
<title>NgxTxtImgModule&#45;&gt;NgxTxtImgComponent </title>
<path fill="none" stroke="#000000" stroke-dasharray="5,2" d="M240.6475,-122.2228C240.6475,-142.3652 240.6475,-172 240.6475,-172 240.6475,-172 309.1803,-172 309.1803,-172"/>
<polygon fill="#000000" stroke="#000000" points="309.1803,-175.5001 319.1803,-172 309.1802,-168.5001 309.1803,-175.5001"/>
</g>
<!-- NgxTxtImgComponent -->
<g id="node5" class="node">
<title>NgxTxtImgComponent</title>
<polygon fill="#ffffb3" stroke="#000000" points="641.934,-190 494.066,-190 494.066,-154 641.934,-154 641.934,-190"/>
<text text-anchor="middle" x="568" y="-167.8" font-family="Times,serif" font-size="14.00" fill="#000000">NgxTxtImgComponent</text>
</g>
<!-- NgxTxtImgComponent&#45;&gt;NgxTxtImgModule -->
<g id="edge4" class="edge">
<title>NgxTxtImgComponent&#45;&gt;NgxTxtImgModule</title>
<path fill="none" stroke="#000000" d="M568,-153.7772C568,-133.6348 568,-104 568,-104 568,-104 289.7518,-104 289.7518,-104"/>
<polygon fill="#000000" stroke="#000000" points="289.7518,-100.5001 279.7518,-104 289.7517,-107.5001 289.7518,-100.5001"/>
</g>
</g>
</svg>
